<svg width="800" height="600" xmlns="http://www.w3.org/2000/svg">
 <g>
  <title>Layer 1</title>
  <path stroke="#000" fill="#fff" d="m164.71546,179.73983c3.20531,-0.64086 26.48616,25.49979 26.92526,30.76732c0.64106,7.69173 15.38593,7.69173 19.23231,7.69173c3.84659,0 31.41291,16.66559 50.00415,34.61329c18.59144,17.9475 73.08303,1.28192 76.92941,0c3.84659,-1.28213 179.50216,-35.25415 226.94185,-11.53769c22.78395,11.39024 67.69333,-28.85153 73.56389,-112.49288c-2.40404,-55.76549 -52.56037,-57.85835 -62.98604,-40.86268c-7.69296,7.53152 -20.83506,5.28811 -17.62954,-8.493c2.91471,-9.22846 22.43761,-37.65777 58.49838,-25.15858c30.57091,10.59636 48.2531,36.08277 54.81223,73.55278c4.32722,80.76407 -56.25477,140.37552 -56.25477,140.37552c0,0 4.80808,21.15261 11.53955,34.61329c6.73126,13.46068 8.65446,59.61145 7.69276,65.3802c-0.96149,5.76895 28.84866,37.49777 38.46481,38.45905c8.33402,3.84596 31.73354,74.99533 32.69504,90.37877c8.65465,4.32661 -0.96149,25.95987 -11.53934,28.84434c-10.57785,2.88447 -13.46273,-17.30664 -13.46273,-26.92136c0,-9.61471 -10.57785,-54.8042 -40.388,-59.61145c-29.81015,-4.80746 -55.77371,-21.15261 -55.77371,-21.15261c0,0 -1.92339,9.61491 -5.76977,13.46089c0,0 9.61615,16.34494 9.61615,40.38183c-0.96149,10.5762 -16.34741,43.26651 -26.92526,46.15098c0,0 -17.30911,26.92136 -25.00207,26.92136c-7.69296,0 -21.1557,9.61471 -42.31119,-1.92299c0,0 3.84638,-24.03688 23.07888,-17.30664c0,0 45.19607,-34.61308 23.07868,-49.99675c0,0 -13.46252,-19.22942 -21.15549,-26.92136c-7.69296,-7.69173 -15.38593,-20.19092 -17.30911,-34.61308c0,0 -64.42838,-3.84596 -80.77599,-7.69194c-16.34741,-3.84575 -46.15756,5.76895 -46.15756,11.53769c0,5.76895 4.80808,60.57315 13.46252,71.14935c0,0 2.88488,13.46068 0,17.30664c-2.88488,3.84575 10.57785,35.57457 -15.38593,32.6901c-24.52123,4.32661 -36.54142,-14.90281 -7.69276,-21.15241c1.44234,-20.67176 -36.54162,-108.16606 -61.5437,-96.14772c-32.69504,4.80746 -21.63633,-23.55603 -53.85053,21.15261c-33.65673,39.42034 -91.35384,67.30318 -94.23853,84.60982c0,0 -17.30911,-3.84596 -21.1557,9.61471c0,0 -45.19607,5.76895 -42.31119,-1.92299c2.88488,-7.69173 5.28892,-23.55603 23.07888,-17.30644c0,0 40.388,-15.86451 78.8526,-98.07071c0,0 -4.80808,-21.15241 1.92318,-38.45905c6.73147,-17.30644 -3.84638,-88.4558 -51.92733,-84.60982c0,0 -17.95018,6.40981 -28.84845,-23.07539c0,0 -4.48764,-5.76895 0,-11.53769c4.48743,-5.76895 15.38593,-14.7426 17.30911,-21.15241c1.92318,-6.41001 6.41084,-16.02472 30.77164,-24.99858c11.53955,-12.01834 -1.28192,-35.89501 1.92339,-36.53607l0.00002,0.00001z" id="svg_7"/>
 </g>

</svg>